<?xml version="1.0" ?><!DOCTYPE svg  PUBLIC '-//W3C//DTD SVG 1.1//EN'  'http://www.w3.org/Graphics/SVG/1.1/DTD/svg11.dtd'><svg enable-background="new 0 0 91 91" height="91px" id="Layer_1" version="1.1" viewBox="0 0 91 91" width="91px" xml:space="preserve" xmlns="http://www.w3.org/2000/svg" xmlns:xlink="http://www.w3.org/1999/xlink"><g><path d="M35.297,39.05v8.302h3.4V39.05c0-3.646,2.965-6.612,6.611-6.612h3.654c3.648,0,6.615,2.966,6.615,6.612   v8.302h3.4V39.05c0-4.066-2.441-7.568-5.934-9.135c1.422-1.477,2.303-3.479,2.303-5.688c0-4.527-3.684-8.211-8.211-8.211   s-8.211,3.684-8.211,8.211c0,2.208,0.881,4.211,2.303,5.688C37.738,31.481,35.297,34.982,35.297,39.05z M47.137,19.417   c2.652,0,4.811,2.158,4.811,4.811s-2.158,4.81-4.811,4.81s-4.811-2.157-4.811-4.81S44.484,19.417,47.137,19.417z" fill="#010101"/><path d="M54.313,49.808v-9.953h-3.4v21.069c0,0.563-0.475,1.037-1.039,1.037c-0.561,0-1.035-0.475-1.035-1.037   V49.597h-3.4v11.327c0,0.563-0.475,1.037-1.037,1.037s-1.037-0.475-1.037-1.037V39.854h-3.4v9.953   c-9.076,1.442-15.32,5.418-16.414,10.374h-2.723v3.4h2.781c1.568,5.815,10.488,10.218,21.83,10.62v3.639h3.4v-3.639   c11.34-0.402,20.26-4.805,21.828-10.62h3.025v-3.4h-2.967C69.631,55.226,63.389,51.25,54.313,49.808z M48.838,70.794v-1.787h-3.4   v1.787c-9.439-0.364-16.328-3.699-18.172-7.212h5.594v-3.4h-5.762c1.303-3.051,6.299-5.753,12.865-6.915v7.657   c0,2.446,1.99,4.438,4.438,4.438c1.037,0,1.98-0.373,2.736-0.972c0.756,0.599,1.699,0.972,2.736,0.972   c2.449,0,4.439-1.991,4.439-4.438v-7.657c6.564,1.162,11.563,3.864,12.863,6.915h-5.52v3.4h5.352   C65.166,67.095,58.275,70.43,48.838,70.794z" fill="#010101"/></g></svg>